<svg width="70" height="40" viewBox="0 0 70 40" fill="none" xmlns="http://www.w3.org/2000/svg">
<rect x="0.5" y="0.5" width="69" height="39" rx="19.5" stroke="#E0E0E0"/>
<circle cx="21.5" cy="20" r="17.5" fill="#274C5B"/>
<path d="M20.4008 26.0003C20.7736 26.0003 21.0759 25.7018 21.0759 25.3337C21.0759 24.9655 20.7736 24.667 20.4008 24.667C20.0279 24.667 19.7256 24.9655 19.7256 25.3337C19.7256 25.7018 20.0279 26.0003 20.4008 26.0003Z" fill="white" stroke="white" stroke-width="1.5" stroke-linecap="round" stroke-linejoin="round"/>
<path d="M25.1283 26.0003C25.5012 26.0003 25.8035 25.7018 25.8035 25.3337C25.8035 24.9655 25.5012 24.667 25.1283 24.667C24.7554 24.667 24.4531 24.9655 24.4531 25.3337C24.4531 25.7018 24.7554 26.0003 25.1283 26.0003Z" fill="white" stroke="white" stroke-width="1.5" stroke-linecap="round" stroke-linejoin="round"/>
<path d="M15 14H17.0892L18.656 22.7671H27.0127" stroke="white" stroke-width="2" stroke-linecap="round" stroke-linejoin="round"/>
<path d="M18.3763 20.6456L26.799 20.704C26.8594 20.704 26.9179 20.6834 26.9646 20.6456C27.0113 20.6078 27.0434 20.5552 27.0552 20.4967L27.9953 15.8553C28.0029 15.8179 28.002 15.7793 27.9926 15.7423C27.9833 15.7052 27.9657 15.6707 27.9412 15.6412C27.9167 15.6117 27.8858 15.5879 27.8509 15.5716C27.8159 15.5553 27.7777 15.5468 27.7391 15.5469L17.5234 15.5469" stroke="white" stroke-width="2" stroke-linecap="round" stroke-linejoin="round"/>
</svg>
